<?xml version="1.0" encoding="utf-8"?>
<!-- Generator: Adobe Illustrator 17.1.0, SVG Export Plug-In . SVG Version: 6.00 Build 0)  -->
<!DOCTYPE svg PUBLIC "-//W3C//DTD SVG 1.1//EN" "http://www.w3.org/Graphics/SVG/1.1/DTD/svg11.dtd">
<svg version="1.1" id="Layer_1" xmlns="http://www.w3.org/2000/svg" xmlns:xlink="http://www.w3.org/1999/xlink" x="0px" y="0px"
	 viewBox="0 0 841.9 139.1" enable-background="new 0 0 841.9 139.1" xml:space="preserve">
<g>
	<defs>
		<rect id="SVGID_1_" x="13.9" y="18.9" width="809.9" height="113.7"/>
	</defs>
	<clipPath id="SVGID_2_">
		<use xlink:href="#SVGID_1_"  overflow="visible"/>
	</clipPath>
	<path clip-path="url(#SVGID_2_)" fill="#DE761C" d="M728.6,126.6c0-0.1-0.1-0.3-0.1-0.5c0-0.2,0-0.3,0.1-0.5c0-0.1,0.1-0.3,0.2-0.4
		c0.1-0.1,0.2-0.2,0.3-0.3c0.1-0.1,0.3-0.1,0.4-0.2c0.1,0,0.3-0.1,0.5-0.1c0.2,0,0.3,0,0.5,0.1c0.1,0,0.3,0.1,0.4,0.2
		c0.1,0.1,0.2,0.2,0.3,0.3c0.1,0.1,0.2,0.3,0.2,0.4c0,0.1,0.1,0.3,0.1,0.5c0,0.2,0,0.3-0.1,0.5c0,0.1-0.1,0.3-0.2,0.4
		c-0.1,0.1-0.2,0.2-0.3,0.3c-0.1,0.1-0.3,0.1-0.4,0.2c-0.1,0-0.3,0.1-0.5,0.1c-0.2,0-0.3,0-0.5-0.1c-0.1,0-0.3-0.1-0.4-0.2
		c-0.1-0.1-0.2-0.2-0.3-0.3C728.7,126.9,728.6,126.7,728.6,126.6"/>
	<path clip-path="url(#SVGID_2_)" fill="#DE761C" d="M718.5,112.5l0.8,4.3l-0.8,0.2c-0.3-0.6-0.6-1.2-0.9-1.6
		c-0.3-0.4-0.5-0.7-0.7-0.9c-0.2-0.2-0.4-0.4-0.6-0.5c-0.2-0.1-0.3-0.2-0.5-0.3c-0.5-0.2-0.9-0.3-1.4-0.3c-0.3,0-0.6,0-0.9,0.1
		c-0.3,0.1-0.5,0.2-0.7,0.3c-0.2,0.1-0.4,0.3-0.5,0.5c-0.1,0.2-0.2,0.4-0.3,0.6c-0.1,0.2-0.1,0.4-0.1,0.7c0,0.2,0,0.3,0,0.5
		c0.1,0.4,0.2,0.8,0.6,1.2c0.1,0.1,0.3,0.3,0.5,0.4c0.2,0.1,0.5,0.3,1.1,0.6c0.6,0.3,1.6,0.6,2.3,0.9c0.7,0.3,1.1,0.5,1.4,0.7
		c0.3,0.2,0.5,0.4,0.7,0.5c0.2,0.2,0.3,0.3,0.5,0.5c0.1,0.2,0.2,0.3,0.3,0.5c0.1,0.2,0.2,0.3,0.3,0.5c0.1,0.2,0.1,0.3,0.2,0.5
		c0,0.2,0.1,0.4,0.1,0.6c0,0.2,0,0.4,0,0.6c0,0.4,0,0.7-0.1,1.1c-0.1,0.3-0.2,0.7-0.4,1c-0.2,0.3-0.4,0.6-0.7,0.9
		c-0.3,0.3-0.6,0.5-1,0.7c-0.4,0.2-0.8,0.4-1.2,0.5c-0.4,0.1-0.9,0.2-1.3,0.2c-0.3,0-0.6,0-1.1-0.1c-0.5-0.1-1.1-0.3-1.6-0.4
		c-0.4-0.1-0.7-0.1-0.9-0.2c-0.1,0-0.2,0-0.2,0c-0.1,0-0.2,0-0.4,0.1c-0.2,0.1-0.5,0.1-0.8,0.3l-0.8-4.4l0.8-0.1
		c0.2,0.5,0.5,1,0.8,1.4c0.3,0.4,0.5,0.7,0.8,1c0.3,0.3,0.5,0.5,0.7,0.7c0.2,0.2,0.5,0.3,0.7,0.4c0.5,0.2,0.9,0.4,1.3,0.4
		c0.4,0.1,0.9,0.1,1.4,0c0.2-0.1,0.5-0.2,0.7-0.3c0.2-0.1,0.4-0.3,0.6-0.4c0.2-0.2,0.3-0.3,0.4-0.5c0.2-0.4,0.3-0.8,0.3-1.2
		c0-0.1,0-0.3,0-0.4c-0.1-0.4-0.2-0.8-0.6-1.2c-0.1-0.1-0.3-0.3-0.5-0.4c-0.2-0.2-0.5-0.3-1.1-0.6s-1.6-0.6-2.3-0.9
		c-0.7-0.3-1-0.5-1.3-0.7c-0.3-0.2-0.5-0.4-0.7-0.5c-0.4-0.3-0.6-0.6-0.8-1c-0.1-0.2-0.2-0.3-0.2-0.5c-0.1-0.2-0.1-0.4-0.2-0.5
		c0-0.2-0.1-0.4-0.1-0.6s0-0.4,0-0.6c0-0.3,0-0.7,0.1-1c0.1-0.3,0.2-0.6,0.4-0.9c0.2-0.3,0.4-0.6,0.7-0.8c0.3-0.2,0.5-0.4,0.9-0.6
		c0.3-0.2,0.6-0.3,1-0.4c0.3-0.1,0.7-0.1,1.1-0.1c0.5,0,1,0.1,1.5,0.2c0.2,0.1,0.4,0.1,0.6,0.2c0.2,0,0.3,0,0.3,0.1
		c0.1,0,0.2,0,0.3,0c0.2,0,0.3,0,0.5-0.1c0.2,0,0.3-0.1,0.5-0.2C718.2,112.7,718.4,112.6,718.5,112.5"/>
	<path clip-path="url(#SVGID_2_)" fill="#DE761C" d="M722.3,125.3v-6.9h-1.2v-0.9h1.2v-2.9l2.2-1.2v4h2.4v0.9h-2.4v6.9
		c0,0.2,0,0.4,0.3,0.7c0,0,0.1,0.1,0.1,0.1c0.1,0,0.1,0.1,0.2,0.1c0.1,0.1,0.3,0.1,0.5,0.1c0.1,0,0.2,0,0.3,0c0.1,0,0.2,0,0.3-0.1
		c0.1,0,0.2-0.1,0.4-0.2c0.2-0.1,0.4-0.2,0.6-0.4l0.3,0.6c-0.4,0.4-0.8,0.8-1.3,1c-0.2,0.1-0.4,0.2-0.6,0.3
		c-0.2,0.1-0.4,0.1-0.5,0.1c-0.2,0-0.3,0-0.4,0c-0.1,0-0.3,0-0.4,0s-0.3,0-0.4-0.1c-0.1,0-0.2-0.1-0.3-0.1c-0.1,0-0.2-0.1-0.3-0.2
		c-0.1-0.1-0.2-0.1-0.3-0.2c-0.1-0.1-0.2-0.2-0.2-0.3c-0.1-0.1-0.1-0.2-0.2-0.4c-0.1-0.1-0.1-0.3-0.2-0.5
		C722.3,125.7,722.3,125.5,722.3,125.3"/>
	<path clip-path="url(#SVGID_2_)" fill="#DE761C" d="M758.4,121.7c0-0.4,0-0.8,0.1-1.2c0-0.3,0.1-0.6,0.2-0.9
		c0.1-0.2,0.1-0.4,0.2-0.6c0.1-0.2,0.2-0.3,0.2-0.4c0.3-0.4,0.5-0.5,0.8-0.7c0.2-0.1,0.4-0.1,0.6-0.1c0.2,0,0.3,0,0.5,0.1
		c0.2,0,0.3,0.1,0.4,0.2c0.1,0.1,0.2,0.1,0.3,0.2c0.1,0.1,0.2,0.2,0.2,0.3c0.1,0.1,0.1,0.2,0.1,0.4c0,0.1,0,0.3,0,0.5
		c0,0.2,0,0.3,0,0.5c0,0.1,0,0.2-0.1,0.3c0,0.1-0.1,0.2-0.1,0.2c0,0.1-0.1,0.1-0.1,0.2c-0.1,0.1-0.1,0.1-0.2,0.2
		c-0.1,0.1-0.2,0.1-0.3,0.1c-0.1,0-0.2,0.1-0.4,0.1L758.4,121.7z M763.9,124.7c-0.3,0.3-0.6,0.6-0.8,0.8c-0.2,0.2-0.3,0.3-0.4,0.3
		c-0.2,0.1-0.4,0.2-0.7,0.2c-0.1,0-0.3,0-0.4,0c-0.3,0-0.6,0-0.9-0.1c-0.1,0-0.3-0.1-0.4-0.2c-0.1-0.1-0.3-0.2-0.4-0.3
		c-0.1-0.1-0.2-0.2-0.4-0.3c-0.1-0.1-0.2-0.3-0.3-0.5c-0.1-0.2-0.2-0.4-0.3-0.6c-0.1-0.2-0.2-0.5-0.2-0.7c-0.1-0.3-0.1-0.5-0.1-0.8
		l5.9-1.5c0-0.4-0.1-0.7-0.2-1.1c-0.1-0.4-0.2-0.7-0.4-1s-0.4-0.6-0.6-0.8c-0.2-0.2-0.5-0.4-0.8-0.6c-0.3-0.1-0.6-0.3-0.8-0.3
		c-0.3-0.1-0.6-0.1-0.9-0.1c-0.4,0-0.8,0.1-1.2,0.2c-0.2,0.1-0.4,0.2-0.6,0.3c-0.2,0.1-0.4,0.2-0.6,0.4c-0.2,0.2-0.4,0.3-0.5,0.6
		c-0.2,0.2-0.4,0.5-0.5,0.8c-0.2,0.3-0.3,0.6-0.4,1c-0.1,0.4-0.2,0.8-0.3,1.2c-0.1,0.4-0.1,0.9-0.1,1.3c0,0.4,0,0.8,0.1,1.2
		c0.1,0.4,0.2,0.7,0.3,1c0.1,0.3,0.3,0.6,0.4,0.9c0.2,0.3,0.3,0.5,0.5,0.7c0.2,0.2,0.4,0.4,0.6,0.5c0.2,0.1,0.4,0.2,0.6,0.3
		s0.4,0.2,0.7,0.2c0.2,0,0.5,0.1,0.7,0.1c0.2,0,0.5,0,0.7,0c0.2,0,0.4-0.1,0.6-0.1c0.2-0.1,0.4-0.1,0.6-0.2c0.2-0.1,0.4-0.2,0.6-0.4
		c0.2-0.2,0.4-0.3,0.7-0.6c0.3-0.3,0.6-0.7,0.9-1.1L763.9,124.7z"/>
	<path clip-path="url(#SVGID_2_)" fill="#DE761C" d="M765.3,117.9l2.4-0.8c0.1,0.1,0.1,0.1,0.2,0.2c0.1,0.1,0.1,0.2,0.2,0.4
		c0.1,0.2,0.2,0.4,0.3,0.8c0.1,0.4,0.2,1.1,0.3,1.7h0c0.3-0.6,0.6-1.3,0.8-1.7c0.2-0.4,0.4-0.6,0.5-0.7c0.1-0.1,0.2-0.3,0.3-0.3
		c0.3-0.3,0.6-0.4,0.9-0.4c0.1,0,0.2,0,0.3,0c0.2,0,0.3,0,0.5,0c0.1,0,0.3,0.1,0.4,0.1c0.1,0,0.2,0.1,0.3,0.2
		c0.1,0.1,0.1,0.1,0.2,0.2c0.1,0.1,0.1,0.2,0.1,0.3c0,0.1,0,0.2,0,0.3c0,0.1,0,0.2,0,0.3c0,0.1-0.1,0.2-0.1,0.2
		c-0.1,0.1-0.1,0.2-0.2,0.3c-0.1,0.1-0.2,0.2-0.3,0.2c-0.3,0.2-0.6,0.3-0.9,0.3c-0.1,0-0.2,0-0.3,0c-0.1,0-0.3-0.1-0.5-0.1
		c-0.2,0-0.3-0.1-0.5-0.1c0,0-0.1,0-0.1,0c0,0-0.1,0-0.1,0.1c0,0-0.1,0.1-0.2,0.2c-0.1,0.1-0.1,0.2-0.2,0.4
		c-0.1,0.2-0.1,0.3-0.2,0.6c-0.1,0.2-0.1,0.5-0.2,0.8c-0.1,0.3-0.1,0.6-0.2,0.9c0,0.3-0.1,0.7-0.1,1.1c0,0.4,0,0.8,0,1.2
		c0,0.4,0,0.7,0,0.9c0,0.2,0,0.4,0,0.6s0,0.3,0.1,0.5l1.2,0.2v0.6h-4.6v-0.6l1.2-0.2V121c0-0.3,0-0.5-0.1-0.7c0-0.2-0.1-0.4-0.1-0.6
		c0-0.2-0.1-0.3-0.2-0.4c-0.1-0.1-0.1-0.2-0.2-0.3c-0.2-0.2-0.4-0.4-0.6-0.4c-0.1-0.1-0.3-0.1-0.5-0.1V117.9z"/>
	<path clip-path="url(#SVGID_2_)" fill="#DE761C" d="M773.4,118.5v-0.6l2.4-0.8c0.1,0.1,0.1,0.1,0.2,0.2c0.1,0.1,0.1,0.2,0.2,0.4
		c0.1,0.2,0.2,0.4,0.3,0.8c0.1,0.4,0.2,1.1,0.3,1.7h0c0.3-0.6,0.6-1.3,0.8-1.7c0.2-0.4,0.4-0.6,0.5-0.7c0.1-0.1,0.2-0.3,0.3-0.3
		c0.3-0.3,0.6-0.4,0.9-0.4c0.1,0,0.2,0,0.3,0c0.2,0,0.3,0,0.5,0c0.1,0,0.3,0.1,0.4,0.1c0.1,0,0.2,0.1,0.3,0.2
		c0.1,0.1,0.1,0.1,0.2,0.2c0.1,0.1,0.1,0.2,0.1,0.3c0,0.1,0,0.2,0,0.3c0,0.1,0,0.2,0,0.3c0,0.1-0.1,0.2-0.1,0.2
		c-0.1,0.1-0.1,0.2-0.2,0.3c-0.1,0.1-0.2,0.2-0.3,0.2c-0.3,0.2-0.6,0.3-0.9,0.3c-0.1,0-0.2,0-0.3,0c-0.1,0-0.3-0.1-0.5-0.1
		c-0.2,0-0.3-0.1-0.5-0.1c0,0-0.1,0-0.1,0c0,0-0.1,0-0.1,0.1c0,0-0.1,0.1-0.2,0.2c-0.1,0.1-0.1,0.2-0.2,0.4
		c-0.1,0.2-0.1,0.3-0.2,0.6s-0.1,0.5-0.2,0.8c-0.1,0.3-0.1,0.6-0.2,0.9c0,0.3-0.1,0.7-0.1,1.1c0,0.4,0,0.8,0,1.2s0,0.7,0,0.9
		c0,0.2,0,0.4,0,0.6c0,0.2,0,0.3,0.1,0.5l1.2,0.2v0.6h-4.6v-0.6l1.2-0.2V121c0-0.3,0-0.5-0.1-0.7c0-0.2-0.1-0.4-0.1-0.6
		c-0.1-0.2-0.1-0.3-0.2-0.4c-0.1-0.1-0.1-0.2-0.2-0.3c-0.2-0.2-0.4-0.4-0.6-0.4C773.7,118.5,773.5,118.5,773.4,118.5"/>
	<path clip-path="url(#SVGID_2_)" fill="#DE761C" d="M783.6,121.7c0-0.4,0-0.7,0.1-1.1c0-0.3,0.1-0.6,0.1-0.8
		c0.1-0.2,0.1-0.4,0.2-0.6c0.1-0.2,0.1-0.3,0.2-0.4c0.1-0.1,0.1-0.2,0.2-0.3c0.2-0.3,0.5-0.4,0.7-0.5c0.2-0.1,0.4-0.1,0.5-0.1
		c0.2,0,0.3,0,0.5,0.1c0.2,0,0.3,0.1,0.4,0.2c0.1,0.1,0.2,0.1,0.3,0.2c0.1,0.1,0.2,0.2,0.2,0.3c0.1,0.1,0.1,0.2,0.1,0.4
		c0,0.1,0,0.3,0,0.5c0,0.2,0,0.3,0,0.5c0,0.1,0,0.2-0.1,0.3c0,0.1-0.1,0.2-0.1,0.2c0,0.1-0.1,0.1-0.1,0.2c-0.1,0.1-0.1,0.1-0.2,0.2
		c-0.1,0.1-0.2,0.1-0.3,0.1c-0.1,0-0.2,0.1-0.4,0.1L783.6,121.7z M789.1,124.7c-0.3,0.3-0.6,0.6-0.8,0.8c-0.2,0.2-0.3,0.3-0.4,0.3
		c-0.2,0.1-0.4,0.2-0.7,0.2c-0.1,0-0.3,0-0.4,0c-0.3,0-0.6,0-0.9-0.1c-0.1,0-0.3-0.1-0.4-0.2c-0.1-0.1-0.3-0.2-0.4-0.3
		c-0.1-0.1-0.2-0.2-0.4-0.3c-0.1-0.1-0.2-0.3-0.3-0.5c-0.1-0.2-0.2-0.4-0.3-0.6c-0.1-0.2-0.2-0.5-0.2-0.7c-0.1-0.3-0.1-0.5-0.1-0.8
		l5.9-1.5c0-0.4-0.1-0.7-0.2-1.1c-0.1-0.4-0.3-0.7-0.4-1c-0.2-0.3-0.4-0.6-0.6-0.8c-0.2-0.2-0.5-0.4-0.8-0.6
		c-0.3-0.1-0.6-0.3-0.8-0.3c-0.3-0.1-0.6-0.1-0.9-0.1c-0.4,0-0.8,0.1-1.2,0.2c-0.2,0.1-0.4,0.2-0.6,0.3c-0.2,0.1-0.4,0.2-0.6,0.4
		c-0.2,0.2-0.4,0.3-0.5,0.6c-0.2,0.2-0.3,0.5-0.5,0.8c-0.2,0.3-0.3,0.6-0.4,1c-0.1,0.4-0.2,0.8-0.3,1.2c-0.1,0.4-0.1,0.9-0.1,1.3
		c0,0.4,0,0.8,0.1,1.2c0.1,0.4,0.2,0.7,0.3,1c0.1,0.3,0.3,0.6,0.4,0.9c0.2,0.3,0.3,0.5,0.5,0.7c0.2,0.2,0.4,0.4,0.6,0.5
		c0.2,0.1,0.4,0.2,0.6,0.3c0.2,0.1,0.4,0.2,0.7,0.2c0.2,0,0.5,0.1,0.7,0.1c0.2,0,0.5,0,0.7,0c0.2,0,0.4-0.1,0.6-0.1
		c0.2-0.1,0.4-0.1,0.6-0.2c0.2-0.1,0.4-0.2,0.6-0.4c0.2-0.2,0.4-0.3,0.7-0.6c0.3-0.3,0.6-0.7,0.9-1.1L789.1,124.7z"/>
	<path clip-path="url(#SVGID_2_)" fill="#DE761C" d="M799.1,127.5c-0.3,0.1-0.7,0.1-1.1,0.1c-0.4,0-0.8,0-1.2-0.1
		c-0.3,0-0.6-0.1-0.8-0.2c-0.2-0.1-0.4-0.1-0.5-0.2c-0.1-0.1-0.2-0.1-0.3-0.2c-0.4-0.3-0.5-0.6-0.5-0.8c0-0.2,0-0.5,0.1-0.8
		c0.1-0.1,0.1-0.2,0.2-0.2c0.1-0.1,0.2-0.1,0.2-0.2c0.3-0.1,0.5-0.2,0.8-0.1c0.3,0,0.5,0.1,0.8,0.4c0.1,0.1,0.1,0.1,0.2,0.2
		c0.1,0.1,0.1,0.1,0.1,0.2c0,0.1,0.1,0.2,0.1,0.3c0,0.1,0.1,0.2,0.1,0.4c0,0.1,0,0.1,0,0.2c0,0,0,0.1,0,0.1c0,0,0,0.1,0,0.1
		c0,0.1,0.1,0.1,0.1,0.1c0,0,0.1,0,0.1,0.1c0,0,0.1,0,0.1,0c0,0,0.1,0,0.2,0c0.1,0,0.2,0,0.4,0c0.1,0,0.3,0,0.5,0
		c0.2,0,0.3-0.1,0.4-0.1c0.1,0,0.2-0.1,0.3-0.2c0.1-0.1,0.2-0.1,0.2-0.2c0.1-0.1,0.1-0.1,0.2-0.2c0.1-0.1,0.1-0.2,0.1-0.3
		c0-0.1,0.1-0.2,0.1-0.3c0-0.1,0-0.2,0-0.3c0-0.2,0-0.4-0.1-0.5c0-0.1-0.1-0.2-0.1-0.2c-0.1-0.1-0.1-0.2-0.2-0.3
		c-0.1-0.1-0.2-0.2-0.4-0.3c-0.2-0.1-0.4-0.3-0.8-0.5c-0.5-0.2-1.1-0.5-1.6-0.7c-0.4-0.2-0.7-0.4-0.8-0.5c-0.2-0.1-0.3-0.2-0.4-0.3
		c-0.3-0.3-0.5-0.6-0.5-0.9c0-0.1-0.1-0.2-0.1-0.3c0-0.1,0-0.2,0-0.4c0-0.3,0-0.6,0.1-0.8c0.2-0.4,0.4-0.8,0.9-1.3
		c0.2-0.1,0.4-0.3,0.6-0.4c0.2-0.1,0.5-0.3,0.8-0.4c0.6-0.2,1.2-0.3,1.8-0.3c0.1,0,0.3,0,0.4,0c0.1,0,0.3,0,0.4,0.1
		c0.1,0,0.2,0.1,0.3,0.1c0.1,0,0.2,0.1,0.2,0.1c0.3,0.2,0.4,0.4,0.4,0.7c0,0.1,0,0.3,0,0.4c0,0.1,0,0.1-0.1,0.2
		c0,0.1-0.1,0.1-0.1,0.2c0,0.1-0.1,0.1-0.1,0.2c-0.1,0-0.1,0.1-0.2,0.1c-0.1,0-0.2,0.1-0.3,0.1c-0.2,0-0.4,0-0.7,0
		c-0.1,0-0.2,0-0.3-0.1c-0.1,0-0.2-0.1-0.3-0.1c-0.1-0.1-0.2-0.1-0.2-0.2c-0.1-0.1-0.1-0.2-0.2-0.3c-0.1-0.1-0.1-0.2-0.2-0.4
		c-0.1-0.1-0.1-0.3-0.2-0.5c-0.2,0-0.4,0.1-0.5,0.1c-0.2,0.1-0.3,0.1-0.4,0.2c-0.1,0.1-0.2,0.2-0.3,0.3c-0.3,0.3-0.4,0.6-0.4,1
		c0,0.2,0.1,0.4,0.2,0.6c0.1,0.1,0.1,0.1,0.2,0.2c0.1,0.1,0.2,0.2,0.4,0.3c0.2,0.1,0.5,0.3,1,0.4c0.5,0.2,1.1,0.4,1.5,0.6
		c0.4,0.2,0.6,0.3,0.7,0.4c0.2,0.1,0.3,0.2,0.4,0.3c0.3,0.3,0.5,0.6,0.6,0.9c0,0.1,0.1,0.2,0.1,0.3c0.1,0.2,0.1,0.5,0.1,0.8
		c0,0.2,0,0.4-0.1,0.6c0,0.2-0.1,0.4-0.2,0.6c-0.1,0.2-0.2,0.3-0.3,0.5c-0.1,0.2-0.2,0.3-0.4,0.5c-0.1,0.1-0.3,0.3-0.5,0.4
		c-0.2,0.1-0.4,0.2-0.7,0.3C799.7,127.4,799.4,127.5,799.1,127.5"/>
	<path clip-path="url(#SVGID_2_)" fill="#DE761C" d="M752.8,109.8c-0.4,0-0.7,0-1.1,0.1c-0.3,0-0.6,0.1-0.8,0.2
		c-0.2,0.1-0.4,0.2-0.6,0.2c-0.2,0.1-0.3,0.2-0.4,0.3c-0.2,0.2-0.3,0.3-0.3,0.5c0,0.1,0,0.2,0,0.3c0,0.1,0.1,0.2,0.2,0.3
		c0.1,0.1,0.2,0.2,0.3,0.3c0.1,0.1,0.3,0.2,0.5,0.3c0.2,0.1,0.4,0.2,0.7,0.3c0.3,0.1,0.6,0.2,0.9,0.2c0.3,0.1,0.7,0.1,1.1,0.1
		c0.4,0,0.8,0,1.2,0c0.3,0,0.7,0.1,1,0.1c0.3,0,0.6,0,0.8-0.1c0.2,0,0.5-0.1,0.6-0.2c0.2-0.1,0.3-0.1,0.5-0.2
		c0.4-0.2,0.5-0.5,0.5-0.8c0-0.2-0.1-0.4-0.3-0.5c-0.1-0.1-0.2-0.2-0.3-0.3c-0.1-0.1-0.3-0.2-0.5-0.2c-0.2-0.1-0.4-0.1-0.7-0.1
		c-0.3,0-0.6,0-0.9,0c-0.3,0-0.7,0.1-1.1,0.1c-0.4,0.1-0.8,0.2-1.2,0.3L752.8,109.8C752.8,109.8,752.8,109.8,752.8,109.8
		 M754.7,109.4c0.4-0.1,0.9-0.1,1.3,0c0.4,0,0.8,0.1,1.1,0.2s0.6,0.2,0.8,0.3c0.2,0.1,0.4,0.3,0.6,0.4c0.2,0.2,0.3,0.3,0.4,0.5
		c0.2,0.4,0.3,0.8,0.2,1.1c0,0.2-0.1,0.4-0.2,0.6c-0.1,0.2-0.2,0.4-0.4,0.5c-0.2,0.2-0.4,0.3-0.6,0.4c-0.2,0.1-0.5,0.2-0.8,0.3
		c-0.3,0.1-0.7,0.1-1.1,0.2c-0.4,0-0.9,0-1.3-0.1c-0.6,0-1.1,0-1.7,0c-0.5,0-1-0.1-1.4-0.2c-0.4-0.1-0.8-0.2-1.1-0.4
		c-0.3-0.2-0.6-0.3-0.8-0.5c-0.7-0.6-1-1.1-1-1.7c0-0.2,0-0.4,0.1-0.6c0.1-0.2,0.2-0.4,0.3-0.5c0.1-0.2,0.3-0.3,0.5-0.5
		c0.2-0.1,0.5-0.3,0.8-0.4c0.3-0.1,0.7-0.2,1.1-0.3c0.4-0.1,0.9-0.1,1.5-0.1c0.6,0,1.2,0,1.9,0.1L754.7,109.4z"/>
	<path clip-path="url(#SVGID_2_)" fill="#DE761C" d="M790.3,114.8c-0.2-0.2-0.3-0.5-0.3-0.8c0-0.3,0.2-0.6,0.4-0.8
		c0.2-0.2,0.4-0.3,0.5-0.3c0.2-0.1,0.4-0.1,0.6,0c0.2,0,0.4,0.1,0.5,0.2c0.2,0.1,0.3,0.2,0.3,0.3c0.1,0.1,0.1,0.2,0.2,0.3
		c0,0.1,0.1,0.2,0.1,0.3c0,0.1,0.1,0.3,0.1,0.4c0,0.2,0,0.3,0,0.5c0,0.2,0,0.4-0.1,0.6c0,0.2-0.1,0.4-0.1,0.5
		c-0.1,0.2-0.1,0.3-0.2,0.5c-0.1,0.2-0.2,0.3-0.2,0.4s-0.2,0.2-0.3,0.3c-0.4,0.5-0.9,0.6-1.3,0.7c0.1-0.1,0.2-0.3,0.3-0.4
		c0.1-0.1,0.2-0.3,0.3-0.4c0.1-0.1,0.1-0.2,0.2-0.4c0-0.1,0.1-0.2,0.1-0.3c0.1-0.3,0.1-0.6,0-0.8c-0.2,0-0.4,0-0.6-0.1
		C790.7,115.2,790.4,115,790.3,114.8"/>
	<path clip-path="url(#SVGID_2_)" fill="#DE761C" d="M754.3,126.6v-9.4l-3.3,1v0.6c0.1,0,0.3,0,0.4,0c0.1,0,0.2,0,0.2,0.1
		c0.1,0,0.1,0,0.2,0.1c0,0,0.1,0.1,0.1,0.1c0,0,0.1,0.1,0.1,0.1c0,0,0.1,0.1,0.1,0.1c0,0,0,0.1,0.1,0.2c0,0.1,0,0.1,0,0.2
		c0,0.1,0,0.2,0,0.3v6.8l-1.2,0.2v0.6h4.5v-0.6L754.3,126.6z"/>
	<path clip-path="url(#SVGID_2_)" fill="#DE761C" d="M686.4,125.7v-5.3c0-0.1,0-0.2,0-0.3c0.1-0.2,0.2-0.5,0.4-0.7
		c0.1-0.1,0.2-0.1,0.3-0.2c0.1-0.1,0.2-0.1,0.4-0.2c0.1-0.1,0.3-0.1,0.5-0.1c0.2,0,0.4-0.1,0.6-0.1c0.3,0,0.5,0,0.8,0.1
		c0.3,0.1,0.5,0.2,0.7,0.4c0.2,0.2,0.5,0.4,0.7,0.7c0.2,0.3,0.4,0.7,0.6,1.2c0.1,0.5,0.2,1.1,0.2,1.7c0,0.6,0,1.1-0.1,1.6
		c-0.1,0.5-0.2,0.8-0.4,1.1c-0.1,0.3-0.3,0.5-0.4,0.7c-0.1,0.2-0.3,0.3-0.4,0.5c-0.1,0.1-0.3,0.2-0.5,0.3c-0.2,0.1-0.3,0.1-0.5,0.2
		c-0.2,0-0.4,0.1-0.6,0.1c-0.2,0-0.5,0-0.7-0.1c-0.2,0-0.4-0.1-0.6-0.2c-0.2-0.1-0.3-0.2-0.4-0.2c-0.3-0.3-0.5-0.5-0.5-0.8
		C686.4,125.8,686.4,125.8,686.4,125.7 M684.5,126.7c0.5,0.3,1,0.5,1.4,0.7c0.4,0.2,0.8,0.3,1.1,0.3c0.3,0.1,0.7,0.1,1,0.1
		c0.6,0,1.1-0.1,1.7-0.3s1-0.4,1.4-0.7c0.4-0.3,0.8-0.7,1.2-1.2c0.3-0.5,0.6-1,0.8-1.7s0.3-1.4,0.3-2c0-0.7-0.1-1.2-0.2-1.7
		c-0.2-0.5-0.4-0.9-0.6-1.3c-0.3-0.4-0.5-0.6-0.8-0.9c-0.3-0.2-0.6-0.4-1-0.5c-0.3-0.1-0.7-0.2-1.1-0.2c-0.3,0-0.5,0-0.7,0.1
		c-0.2,0-0.5,0.1-0.7,0.2c-0.3,0.1-0.5,0.2-0.8,0.4c-0.3,0.2-0.7,0.5-1,0.8v-6.4c-0.4,0.2-0.8,0.3-1.2,0.4c-0.4,0.1-0.7,0.2-1.1,0.3
		c-0.3,0.1-0.7,0.2-1,0.2v0.4c0.2,0,0.4,0,0.5,0c0.1,0,0.2,0,0.3,0.1c0.1,0,0.1,0,0.2,0.1c0,0,0.1,0,0.1,0.1c0,0,0.1,0.1,0.1,0.1
		c0,0,0.1,0.1,0.1,0.1c0,0,0.1,0.1,0.1,0.2c0,0.1,0.1,0.2,0.1,0.5c0,0.2,0,0.6,0,0.9V126.7z"/>
	<path clip-path="url(#SVGID_2_)" fill="#DE761C" d="M697.8,127.8c-0.4,0.8-0.7,1.6-1,2.1c-0.2,0.4-0.3,0.5-0.4,0.6
		c-0.1,0.1-0.1,0.1-0.2,0.2c-0.2,0.1-0.3,0.2-0.4,0.2c-0.1,0-0.1,0-0.2,0c0,0-0.1,0-0.1,0c-0.1,0-0.1,0-0.2-0.1
		c-0.1,0-0.2-0.1-0.4-0.2c-0.1,0-0.2-0.1-0.3-0.1c-0.1,0-0.2,0-0.3,0c-0.1,0-0.2,0-0.3,0c-0.1,0-0.2,0.1-0.3,0.1
		c-0.1,0.1-0.1,0.1-0.2,0.2c-0.1,0.2-0.2,0.4-0.2,0.6c0,0.1,0,0.2,0,0.3c0,0.1,0.1,0.2,0.1,0.2c0,0.1,0.1,0.1,0.2,0.2
		s0.1,0.1,0.2,0.2c0.1,0.1,0.2,0.1,0.4,0.1c0.1,0,0.3,0.1,0.5,0.1c0.2,0,0.3,0,0.5,0c0.3,0,0.5-0.1,0.8-0.3c0.1-0.1,0.3-0.2,0.4-0.3
		c0.1-0.1,0.3-0.3,0.5-0.5c0.2-0.2,0.5-0.6,0.8-1.2c0.3-0.6,0.7-1.5,0.9-2.4l3-8.1c0.1-0.3,0.2-0.6,0.3-0.8c0.1-0.2,0.2-0.3,0.2-0.4
		c0.1-0.1,0.1-0.1,0.1-0.2c0.1-0.1,0.2-0.1,0.4-0.2c0.1,0,0.1,0,0.2,0v-0.4h-3.2v0.4h0.2c0.1,0,0.2,0,0.3,0c0.1,0,0.2,0,0.2,0.1
		c0.1,0,0.1,0,0.1,0.1c0,0,0.1,0,0.1,0.1c0.1,0.1,0.1,0.2,0.1,0.4c0,0,0,0.1,0,0.2c0,0.1,0,0.2-0.1,0.3c0,0.2-0.1,0.4-0.2,0.6
		l-1.8,5.3l-2.1-5.2c-0.1-0.2-0.1-0.4-0.2-0.5c0-0.1-0.1-0.3-0.1-0.4c0-0.1,0-0.2,0-0.2c0-0.1,0-0.1,0-0.1c0,0,0-0.1,0-0.1
		c0-0.1,0.1-0.1,0.1-0.2c0,0,0,0,0.1-0.1c0,0,0.1,0,0.1-0.1c0.1,0,0.1,0,0.2-0.1c0.2,0,0.4,0,0.6,0v-0.4h-4.5v0.4c0,0,0,0,0.1,0
		c0,0,0.1,0,0.1,0c0.1,0,0.1,0,0.2,0c0.1,0,0.2,0.1,0.3,0.1c0,0,0.1,0.1,0.1,0.1c0,0.1,0.1,0.1,0.2,0.3c0.1,0.1,0.2,0.3,0.2,0.5
		L697.8,127.8z"/>
	<path clip-path="url(#SVGID_2_)" fill="#DE761C" d="M747.6,117.4c0,0.2-0.1,0.4-0.2,0.6c-0.1,0.2-0.2,0.4-0.3,0.5
		c-0.1,0.2-0.2,0.3-0.4,0.5c-0.1,0.1-0.3,0.3-0.5,0.4c-0.2,0.1-0.4,0.2-0.6,0.3c-0.2,0.1-0.5,0.2-0.8,0.2c-0.3,0.1-0.7,0.1-1,0.1
		c-0.1,0-0.2,0-0.3,0c-0.1,0-0.3,0-0.4-0.1c-0.1,0-0.2-0.1-0.4-0.1v-6.1c0.2,0,0.3-0.1,0.5-0.1c0.3-0.1,0.7-0.1,1-0.1
		c0.4,0,0.7,0,1.1,0.1c0.3,0.1,0.6,0.2,0.8,0.3c0.2,0.1,0.4,0.3,0.6,0.4c0.2,0.2,0.3,0.4,0.5,0.6c0.1,0.2,0.2,0.5,0.3,0.8
		c0.1,0.3,0.1,0.6,0.1,1C747.6,116.9,747.6,117.2,747.6,117.4 M750.4,116c0-0.2-0.1-0.4-0.1-0.5c-0.1-0.2-0.1-0.3-0.2-0.5
		c-0.1-0.2-0.2-0.3-0.3-0.5c-0.1-0.1-0.3-0.3-0.5-0.4c-0.2-0.1-0.4-0.3-0.7-0.4c-0.3-0.1-0.6-0.3-0.9-0.4c-0.4-0.1-0.8-0.2-1.3-0.3
		c-0.5-0.1-1.1-0.1-1.7-0.1h-5.6v0.7l1.2,0.2v12.8l-1.2,0.2v0.7h5v-0.7l-1.2-0.2v-5.8h1c0.8,0,1.6-0.1,2.2-0.1
		c0.6-0.1,1.1-0.2,1.5-0.3c0.4-0.1,0.7-0.3,1-0.4c0.3-0.1,0.5-0.3,0.7-0.4c0.2-0.1,0.3-0.3,0.5-0.5c0.1-0.2,0.3-0.3,0.4-0.5
		c0.1-0.2,0.2-0.4,0.2-0.6c0.1-0.2,0.1-0.4,0.1-0.6c0-0.2,0.1-0.5,0.1-0.7C750.4,116.3,750.4,116.1,750.4,116"/>
	<path clip-path="url(#SVGID_2_)" fill="#FFFFFF" d="M178.3,85h8.9c0,0,6.9,1,11.7-13c4.6-13.5,2.3-18.3,2.3-18.3s-1.6-4.4-6.3-4.5
		c-4.7-0.1-8.4,4.9-8.4,4.9L178.3,85z M166.6,18.9h6.8h12h3.2c1.2,0,2.5-0.2,3.5,0.7c0.9,0.8,1.3,2,1.1,3.1
		c-0.2,1-5.2,21.4-5.2,21.4s6.7-9.6,16.9-10.2c11.7-0.6,18.6,5.4,19.4,11c1.8,13.7-7.3,38.9-9.4,42.4c-3,5-5.4,7.9-8.7,9.8
		c-3.3,1.9-6.6,2.5-12.1,2.5h-37.7c0,0-2.2,0-3.2-1.7c-0.9-1.6-0.5-2.6,0-4.6c0.5-2,16.2-67.4,16.2-67.4s0.4-1.5-0.7-2.7
		c-1-1.1-3.1-1.7-3.1-1.7L166.6,18.9z"/>
	<path clip-path="url(#SVGID_2_)" fill="#FFFFFF" d="M258.6,36.4c-11.3,1.8-16.1,14.8-18.8,22.1c-2.7,7.3-7.7,17-5.3,29
		c2.7,13.8,32.7,12.6,42.4,11.6c9.7-0.9,11-6.9,11-6.9l5.5-15.4h-4.3c0,0-1.2,5.8-11.9,6.3c-11.3,0.6-15.5-0.6-17.4-5.1
		c-2-4.5,1-8.7,1-8.7h29.1c0,0,0.7,0.1,2.6-0.8c1.9-1,7.9-6.8,6.9-20.6c-1.1-13.7-25.8-13.1-25.8-13.1S269.7,34.6,258.6,36.4
		 M264.3,54.4c1.5-2.9,4.5-4.4,5.6-4.7c1.1-0.2,5.9-1.4,7.8,2.5c2,4.1-0.7,7.4-0.7,7.4h-14.6C262.5,59.5,262.8,57.2,264.3,54.4"/>
	<path clip-path="url(#SVGID_2_)" fill="#DE761C" d="M549.9,85h8.9c0,0,6.9,1,11.7-13c4.6-13.5,2.3-18.3,2.3-18.3s-1.6-4.4-6.3-4.5
		c-4.7-0.1-8.4,4.9-8.4,4.9L549.9,85z M538.1,18.9h23.7c0,0,1.8,0.2,2.3,1.2c0.5,1,0.8,1.7,0.6,2.6c-0.2,1-5.2,21.4-5.2,21.4
		s6.7-9.6,16.9-10.2c11.7-0.6,18.6,5.4,19.4,11c1.8,13.7-7.3,38.9-9.4,42.4c-3,5-5.4,7.9-8.7,9.8c-3.3,1.9-6.6,2.5-12.1,2.5h-37.7
		c0,0-2.2,0-3.2-1.7c-0.9-1.6-0.5-2.6,0-4.6c0.5-2,16.2-67.4,16.2-67.4s0.4-1.5-0.7-2.7c-1-1.1-3.1-1.7-3.1-1.7L538.1,18.9z"/>
	<path clip-path="url(#SVGID_2_)" fill="#FFFFFF" d="M455.9,41.2c-2.6,2.2-4.7,4.7-6.2,7.7c-1,2.1-1.8,4.2-2.6,6.4
		c-0.9,2.7-1.7,5.5-2.3,8.2c-1.2,4.9-2.4,9.9-2.8,14.9c-1.7,21.2,18.6,20.9,24.3,21.1c3.3,0.2,23,1.8,32-11
		c8.9-12.8,10.7-36.4,9.5-41.8c-0.6-2.5-2.6-10.7-19.9-12.9c-0.1,0-0.3,0-0.4-0.1c-4.3-0.5-8.7-0.5-13,0c-3.1,0.4-6.2,1.1-9.1,2.1
		c-1.7,0.6-3.3,1.2-4.8,2.1c-0.1,0.1-0.3,0.1-0.4,0.2C458.6,39.1,457.3,40.1,455.9,41.2 M463.3,66.5c0.2-0.9,0.3-1.9,0.5-2.8
		c0.9-3.6,1.8-7,3.9-10c0.1-0.1,0.2-0.2,0.2-0.4c1.2-1.6,2.6-3.1,4.4-4.1c1.7-1,3.7-1.6,5.7-1.8c0,0,10.1-1.5,9.6,10.2
		c-0.5,11.8-5.1,21-7.6,24c-2.4,2.8-6.2,5.1-11.1,4.1c-4.8-1-7.2-3.8-6.8-10.1C462.4,72.9,462.8,69.3,463.3,66.5"/>
	<path clip-path="url(#SVGID_2_)" fill="#DE761C" d="M620.5,41.2c-2.6,2.2-4.7,4.7-6.2,7.7c-1,2.1-1.8,4.2-2.6,6.4
		c-0.9,2.7-1.7,5.5-2.3,8.2c-1.2,4.9-2.4,9.9-2.8,14.9c-1.7,21.2,18.6,20.9,24.3,21.1c3.3,0.2,23,1.8,32-11
		c8.9-12.8,10.7-36.4,9.5-41.8c-0.6-2.5-2.7-10.7-19.9-12.9c-0.1,0-0.3,0-0.4-0.1c-4.3-0.5-8.7-0.5-13,0c-3.1,0.4-6.2,1.1-9.1,2.1
		c-1.7,0.6-3.3,1.2-4.8,2.1c-0.1,0.1-0.3,0.1-0.4,0.2C623.2,39.1,621.8,40.1,620.5,41.2 M627.9,66.5c0.2-0.9,0.3-1.9,0.5-2.8
		c0.9-3.6,1.8-7,3.9-10c0.1-0.1,0.2-0.2,0.2-0.4c1.2-1.6,2.6-3.1,4.4-4.1c1.7-1,3.7-1.6,5.7-1.8c0,0,10.1-1.5,9.6,10.2
		c-0.5,11.8-5.1,21-7.6,24c-2.4,2.8-6.2,5.1-11.1,4.1c-4.8-1-7.2-3.8-6.8-10.1C627,72.9,627.4,69.3,627.9,66.5"/>
	<path clip-path="url(#SVGID_2_)" fill="#FFFFFF" d="M314,38.2l1.3-3h1.8h4.5h5.8h5.7h4.2c1.3,0,2.5,0,3.5,1.1
		c0.3,0.4,0.6,0.8,0.7,1.2c0.2,0.7,0.1,1.5-0.1,2.3c-0.2,0.7-0.4,1.4-0.5,2.1c-0.2,0.9-0.4,1.8-0.7,2.8c1.3-1.6,2.8-3.1,4.3-4.5
		c1.3-1.2,2.7-2.4,4.2-3.3c1.6-1.1,3.3-1.7,5.2-2.3c4-1.2,8.7-1.3,12.7,0.1c1.1,0.4,2.2,0.9,3.2,1.6c5.3,3.4,4.5,8.5,4.5,8.5
		s-11,48.3-11,48.3c-0.1,0.6-0.1,1.3,0.1,1.9c0.5,1.6,1.9,2,3.2,2.2l-1,2.6h-3.5h-7.7h-7.9h-2.6c-1.5,0-3.3-0.3-4.2-1.7
		c-0.6-0.9-0.8-1.9-0.5-2.9c0.3-1.1,8.9-37.3,8.9-37.3s1.4-5.9-3.2-6.9c-2.4-0.5-4.3,1-5.6,2.8c-1,1.6-1.4,3.3-1.8,5
		c-0.4,1.4-0.7,2.9-1.1,4.3c-0.5,1.9-0.9,3.7-1.4,5.6c-0.5,2.1-1,4.1-1.5,6.2c-0.5,2.1-1,4.1-1.5,6.2c-0.4,1.8-0.9,3.7-1.3,5.5
		c-0.3,1.4-0.7,2.8-1,4.2c-0.2,0.8-0.4,1.5-0.6,2.3c0,0.1,0,0.1-0.1,0.2c0,0-0.2,2,0.9,2.9c1.1,0.9,2.3,0.9,2.3,0.9l-1,2.7h-4.2
		h-8.9c-2.6,0-5.2,0-7.8,0c-1.8,0-3.6,0.1-4.8-1.6c-0.8-1.1-0.8-2.4-0.5-3.6c0.4-1.5,12.2-51.5,12.2-51.5s0.3-2.1-0.6-3.3
		c-0.8-1.2-3-1.5-3-1.5"/>
	<path clip-path="url(#SVGID_2_)" fill="#FFFFFF" d="M387.5,50.1l3-12c0,0,6.8,0.1,12-2.9c5.2-3,7.5-6.6,8-7.5
		c0.6-0.9,2.2-4.1,2.2-4.1h10.1l-3,12h16.7l-3.1,11.7c0,0-0.9,2.9-3.4,2.9c-3.1,0-6.1,0-9.2,0c-1.4,0-2.4,0.3-3.3,1.3
		c-1.8,1.8-2,4.4-2.5,6.7c-0.6,2.6-1.2,5.3-1.8,7.9c-0.6,2.7-1.2,5.4-1.8,8.1c-0.4,1.6-0.7,3.2-1.1,4.8c-0.2,0.9-0.2,1.7,0.3,2.5
		c0.7,1.3,2.2,1.9,3.7,1.9c2.2,0,4.5,0.2,6.7,0c1.3-0.1,2.7-0.6,3.5-1.7c0.6-0.8,1.1-1.9,1.4-2.8h2.6l-4.7,16.3c0,0-1.2,4.4-5,4.4
		c-3.8,0.1-29.2,0-29.3,0c-1.5,0-3.1-1-4.1-2c-2.1-2.4-1.9-5.9-1.2-8.8c0.3-1.4,0.7-2.7,1-4.1c0.5-2.2,1.1-4.3,1.6-6.5
		c0.6-2.6,1.3-5.2,1.9-7.8c0.6-2.6,1.3-5.2,1.9-7.9c0.6-2.2,1.1-4.5,1.6-6.7c0.4-1.5,0.7-3,1.1-4.5c0-0.1,0.2-1.1,0.3-1.1H387.5z"/>
	<path clip-path="url(#SVGID_2_)" fill="#DE761C" d="M797,18.9h23.8c0,0,3.5,0,2.9,2.8c-0.1,0.6-0.3,1.2-0.4,1.8
		c-0.3,1.3-0.6,2.5-0.8,3.8c-0.4,1.8-0.8,3.6-1.2,5.4c-0.5,2.2-1,4.4-1.5,6.7c-0.6,2.5-1.1,5-1.7,7.5c-0.6,2.7-1.2,5.3-1.8,8
		c-0.6,2.7-1.2,5.4-1.8,8.1c-0.6,2.6-1.2,5.2-1.8,7.8c-0.5,2.4-1.1,4.8-1.6,7.1c-0.5,2-0.9,4.1-1.4,6.1c-0.4,1.5-0.7,3.1-1.1,4.6
		c-0.2,0.9-0.4,1.9-0.6,2.8c-0.2,1.1-0.3,2.3,0.3,3.2c0.6,1,1.6,1.7,2.6,2.3l-0.9,2.6h-3.1h-7.1H792c-1.3,0-2.7-0.1-4,0
		c-1.4,0.1-2.7-0.6-3.5-1.6c-1.1-1.3-1-2.8-0.6-4.3c0.1-0.4,0.2-0.8,0.3-1.2c0.3-1.1,0.5-2.2,0.8-3.4c0.4-1.7,0.8-3.4,1.2-5.1
		c0.5-2.1,1-4.3,1.5-6.4c0.6-2.4,1.1-4.9,1.7-7.3c0.6-2.6,1.2-5.2,1.8-7.8c0.6-2.6,1.2-5.3,1.8-7.9c0.6-2.5,1.1-5.1,1.7-7.6
		c0.5-2.3,1-4.6,1.6-6.9c0.4-1.9,0.9-3.8,1.3-5.7c0.3-1.4,0.6-2.8,0.9-4.2c0.4-1.7,1.1-3.6,0.6-5.3c-0.4-1.4-1.5-2.6-3-2.7
		C796.2,21,796.6,19.9,797,18.9"/>
	<path clip-path="url(#SVGID_2_)" fill="#DE761C" d="M684,35.2h8.4c4,0,8,0.1,12,0c2.2,0,4.6,1.2,5.2,3.5c0,0,0.3,1,0.4,2.6
		c0.1,1.6,1,28.5,1,28.5l13.5-34.7h20.1l1.9,34.7l11.3-26.1c0,0,0.6-2-0.4-3.2c-1-1.2-2.7-1.3-2.7-1.3l1.5-4.1c2.1,0,4.2,0,6.3,0
		c3.8,0,7.6,0,11.3,0c1.5,0,2.9,0.1,4.4,0c1.4-0.1,2.8,0.7,3.3,2.1c0.6,1.7-0.6,3.2-1.3,4.6c-0.5,1-1,2-1.5,3
		c-1.5,2.9-2.9,5.7-4.4,8.6c-1.8,3.6-3.7,7.2-5.5,10.7c-1.9,3.8-3.9,7.6-5.8,11.4c-1.8,3.5-3.6,7.1-5.4,10.6
		c-1.4,2.8-2.8,5.6-4.3,8.3c-0.8,1.5-1.6,3.1-2.3,4.6c-0.1,0.2-0.2,0.3-0.2,0.5h-23.1l-1.1-27.2l-13.5,27.2h-22l-3.1-52.9
		c0,0-0.3-3.4-1.4-5.2c-1.1-1.9-3.7-2.2-3.7-2.2L684,35.2z"/>
	<path clip-path="url(#SVGID_2_)" fill="#DE761C" d="M27.7,28.9l108.1-4.4L15.3,21.9c0,0,0.3,19.4,6.4,32.1
		c4.2,8.8,11.7,25.1,30.3,34.2v11.6h53.9v-9c18.2-7.4,26.4-22.2,27.5-25.7c3.8-8.6,4.4-17.6,4.4-17.6s-8.2,35.4-40.5,38.7
		c-32.1,3.3-41.5-3.4-54.6-16.5C28.7,55.6,27.7,28.9,27.7,28.9"/>
	<path clip-path="url(#SVGID_2_)" fill="none" stroke="#DE761C" stroke-width="2.8251" d="M27.7,28.9l108.1-4.4L15.3,21.9
		c0,0,0.3,19.4,6.4,32.1c4.2,8.8,11.7,25.1,30.3,34.2v11.6h53.9v-9c18.2-7.4,26.4-22.2,27.5-25.7c3.8-8.6,4.4-17.6,4.4-17.6
		s-8.2,35.4-40.5,38.7c-32.1,3.3-41.5-3.4-54.6-16.5C28.7,55.6,27.7,28.9,27.7,28.9z"/>
</g>
</svg>
